<svg width="157" height="48" viewBox="0 0 157 48" fill="none" xmlns="http://www.w3.org/2000/svg">
<path d="M73.0097 46.5331V41.5607C73.0097 40.1753 72.4077 39.4832 71.2036 39.4832C70.4127 39.4832 69.5647 39.897 68.6583 40.7257V46.5331C68.6583 46.6872 68.6039 46.8139 68.4938 46.9146C68.3838 47.0152 68.2438 47.0661 68.0766 47.0661H65.9594C65.7895 47.0661 65.6509 47.0152 65.5408 46.9146C65.4307 46.8139 65.375 46.6872 65.375 46.5331V35.1668C65.375 35.0127 65.4307 34.886 65.5408 34.7854C65.6509 34.6835 65.7895 34.6338 65.9594 34.6338H68.0766C68.2438 34.6338 68.3838 34.6835 68.4938 34.7854C68.6039 34.886 68.6583 35.0127 68.6583 35.1668V38.647C69.7468 37.8071 70.8544 37.3871 71.981 37.3871C73.3141 37.3871 74.366 37.7301 75.1365 38.4172C75.907 39.1043 76.293 40.1517 76.293 41.5607V46.5331C76.293 46.6872 76.2373 46.8139 76.1272 46.9146C76.0171 47.0152 75.8785 47.0661 75.71 47.0661H73.5927C73.4242 47.0661 73.2842 47.0152 73.1755 46.9146C73.0654 46.8139 73.0097 46.6872 73.0097 46.5331ZM81.9164 44.5625C82.3105 45.0359 82.9289 45.272 83.7714 45.272C84.6126 45.272 85.231 45.0359 85.6264 44.5625C86.0205 44.0879 86.2189 43.3362 86.2189 42.3062C86.2189 41.2761 86.0205 40.5282 85.6264 40.0597C85.231 39.5926 84.6126 39.359 83.7714 39.359C82.9289 39.359 82.3105 39.5926 81.9164 40.0597C81.521 40.5282 81.3239 41.2761 81.3239 42.3062C81.3239 43.3362 81.521 44.0879 81.9164 44.5625ZM79.5178 38.6296C80.5017 37.8009 81.9191 37.3871 83.7714 37.3871C85.6224 37.3871 87.0411 37.8009 88.025 38.6296C89.0089 39.4596 89.5009 40.6835 89.5009 42.3062C89.5009 43.9276 89.0089 45.1564 88.025 45.9914C87.0411 46.8263 85.6224 47.2438 83.7714 47.2438C81.9191 47.2438 80.5017 46.8263 79.5178 45.9914C78.5326 45.1564 78.0406 43.9276 78.0406 42.3062C78.0406 40.6835 78.5326 39.4596 79.5178 38.6296ZM97.8531 47.0661C97.2062 47.1842 96.365 47.2438 95.3281 47.2438C92.6088 47.2438 91.2499 45.9405 91.2499 43.3362V35.1668C91.2499 35.0127 91.3042 34.886 91.4143 34.7854C91.5257 34.6835 91.6644 34.6338 91.8315 34.6338H93.9501C94.1173 34.6338 94.2573 34.6835 94.3673 34.7854C94.4774 34.886 94.5318 35.0127 94.5318 35.1668V38.0618H97.1736C97.3421 38.0618 97.4808 38.1115 97.5922 38.2122C97.7023 38.3128 97.7566 38.4408 97.7566 38.5948V39.6249C97.7566 39.7777 97.7023 39.9057 97.5922 40.0063C97.4808 40.107 97.3421 40.1579 97.1736 40.1579H94.5318V43.3362C94.5318 43.9276 94.684 44.3849 94.9884 44.7042C95.2928 45.0235 95.6978 45.1838 96.202 45.1838C96.3705 45.1838 96.5974 45.1651 96.8828 45.1303C97.1668 45.0943 97.3748 45.0769 97.5039 45.0769H97.8531C98.023 45.0769 98.1616 45.1266 98.2717 45.2273C98.3818 45.3279 98.4361 45.4559 98.4361 45.6099V46.5331C98.4361 46.6636 98.3818 46.7791 98.2717 46.8798C98.1616 46.9804 98.023 47.0425 97.8531 47.0661ZM109.703 43.2293H102.555C102.619 43.94 102.843 44.4582 103.225 44.7837C103.607 45.1092 104.193 45.272 104.982 45.272C105.876 45.272 106.499 45.0769 106.848 44.6868C107.12 44.3786 107.483 44.2246 107.935 44.2246H109.354C109.521 44.2246 109.661 44.2755 109.771 44.3762C109.881 44.4756 109.936 44.6035 109.936 44.7576C109.936 46.4151 108.207 47.2438 104.75 47.2438C103.001 47.2438 101.642 46.8201 100.67 45.974C99.7 45.1266 99.2134 43.9102 99.2134 42.3248C99.2134 40.7381 99.7027 39.518 100.68 38.6657C101.658 37.8133 103.014 37.3871 104.75 37.3871C106.499 37.3871 107.858 37.8009 108.828 38.6296C109.801 39.4596 110.286 40.6487 110.286 42.2006V42.6976C110.286 42.8516 110.231 42.9784 110.121 43.079C110.01 43.1796 109.872 43.2293 109.703 43.2293ZM106.945 41.4004C106.879 40.0386 106.148 39.359 104.75 39.359C103.352 39.359 102.614 40.0386 102.536 41.4004H106.945ZM114.734 47.0661H112.617C112.448 47.0661 112.309 47.0152 112.198 46.9146C112.088 46.8139 112.034 46.6872 112.034 46.5331V35.1668C112.034 35.0127 112.088 34.886 112.198 34.7854C112.309 34.6835 112.448 34.6338 112.617 34.6338H114.734C114.903 34.6338 115.041 34.6835 115.151 34.7854C115.262 34.886 115.317 35.0127 115.317 35.1668V46.5331C115.317 46.6872 115.262 46.8139 115.151 46.9146C115.041 47.0152 114.903 47.0661 114.734 47.0661Z" fill="#006540"/>
<path d="M79.6891 22.212C78.5489 22.4195 77.0649 22.5239 75.2412 22.5239C70.4508 22.5239 68.0549 20.2302 68.0549 15.6417V10.043H66.401C66.1048 10.043 65.8602 9.95359 65.6658 9.77591C65.4715 9.59948 65.375 9.37459 65.375 9.10373V7.28969C65.375 7.01759 65.4715 6.79394 65.6658 6.61626C65.8602 6.43983 66.1048 6.35037 66.401 6.35037H68.0549V1.25119C68.0549 0.980325 68.1527 0.755434 68.3457 0.579001C68.5401 0.401324 68.786 0.313108 69.0823 0.313108H72.8113C73.1076 0.313108 73.3535 0.401324 73.5465 0.579001C73.7408 0.755434 73.8373 0.980325 73.8373 1.25119V6.35037H78.4918C78.7881 6.35037 79.0327 6.43983 79.227 6.61626C79.4214 6.79394 79.5178 7.01759 79.5178 7.28969V9.10373C79.5178 9.37459 79.4214 9.59948 79.227 9.77591C79.0327 9.95359 78.7881 10.043 78.4918 10.043H73.8373V15.6417C73.8373 16.6842 74.1064 17.4881 74.6418 18.0509C75.1786 18.6137 75.8907 18.8958 76.7809 18.8958C77.0771 18.8958 77.4767 18.8647 77.9781 18.8014C78.4796 18.7392 78.8451 18.7082 79.0721 18.7082H79.6891C79.9853 18.7082 80.2299 18.7964 80.4243 18.9728C80.6186 19.1505 80.7151 19.3754 80.7151 19.6463V21.2739C80.7151 21.5025 80.6186 21.7063 80.4243 21.8827C80.2299 22.0604 79.9853 22.1698 79.6891 22.212ZM90.9115 19.0523C92.6224 19.0523 94.2763 18.5926 95.8731 17.6757V15.2975H90.7402C89.9656 15.2975 89.3487 15.4702 88.892 15.8132C88.4368 16.1573 88.2085 16.6009 88.2085 17.1439C88.2085 17.7067 88.4422 18.1665 88.9097 18.5193C89.3772 18.8747 90.0458 19.0523 90.9115 19.0523ZM92.4512 8.63407C90.9006 8.63407 89.8175 8.97824 89.2005 9.66658C88.7222 10.2095 88.0835 10.4804 87.2844 10.4804H84.7866C84.4903 10.4804 84.2457 10.3909 84.0514 10.2145C83.857 10.0368 83.7606 9.81195 83.7606 9.54233C83.7606 6.62247 86.7951 5.16255 92.8616 5.16255C95.5089 5.16255 97.6357 5.70427 99.2433 6.78897C100.852 7.87366 101.656 9.55227 101.656 11.826V21.2739C101.656 21.5448 101.559 21.7684 101.365 21.9461C101.172 22.1225 100.927 22.212 100.63 22.212H97.4128C97.1166 22.212 96.8719 22.1225 96.6776 21.9461C96.4833 21.7684 96.3868 21.5448 96.3868 21.2739V20.8043C94.6296 21.9511 92.6116 22.5239 90.3298 22.5239C88.0033 22.5239 86.1048 22.0542 84.633 21.1174C83.1626 20.178 82.426 18.8535 82.426 17.1439C82.426 15.433 83.1626 14.1197 84.633 13.2015C86.1048 12.2845 88.0033 11.826 90.3298 11.826H95.8731C95.8731 10.637 95.5999 9.80822 95.0523 9.33856C94.5046 8.8689 93.6376 8.63407 92.4512 8.63407ZM110.587 22.212H106.858C106.56 22.212 106.315 22.1225 106.121 21.9461C105.928 21.7684 105.83 21.5448 105.83 21.2739V6.78897C105.83 6.51811 105.928 6.29321 106.121 6.11554C106.315 5.9391 106.56 5.84965 106.858 5.84965H110.587C110.883 5.84965 111.129 5.9391 111.322 6.11554C111.515 6.29321 111.613 6.51811 111.613 6.78897V21.2739C111.613 21.5448 111.515 21.7684 111.322 21.9461C111.129 22.1225 110.883 22.212 110.587 22.212ZM105.762 2.2837V1.75191C105.762 1.21019 105.934 0.782769 106.275 0.469662C106.617 0.156554 107.085 0 107.679 0H109.765C110.358 0 110.826 0.156554 111.168 0.469662C111.511 0.782769 111.682 1.21019 111.682 1.75191V2.2837C111.682 2.82542 111.511 3.25408 111.168 3.56719C110.826 3.87906 110.358 4.03561 109.765 4.03561H107.679C107.085 4.03561 106.617 3.87906 106.275 3.56719C105.934 3.25408 105.762 2.82542 105.762 2.2837ZM114.76 13.1083C114.76 10.5848 115.645 8.6291 117.413 7.24248C119.181 5.85586 121.718 5.16255 125.026 5.16255C126.646 5.16255 128.321 5.32904 130.055 5.66327C131.789 5.99626 133.101 6.40255 133.991 6.88215V21.0229C133.991 23.2955 133.169 24.9753 131.527 26.06C129.884 27.1447 127.661 27.6864 124.855 27.6864C121.752 27.6864 119.402 27.3472 117.806 26.6688C116.21 25.9917 115.411 24.8709 115.411 23.3066C115.411 23.0358 115.508 22.8109 115.702 22.6344C115.896 22.4568 116.141 22.3686 116.438 22.3686H118.935C119.734 22.3686 120.373 22.6394 120.851 23.1811C121.468 23.8695 122.665 24.2137 124.444 24.2137C125.79 24.2137 126.753 23.9788 127.336 23.5104C127.916 23.0407 128.209 22.212 128.209 21.0229V20.3035C126.428 20.7198 124.764 20.9285 123.212 20.9285C120.681 20.9285 118.639 20.2302 117.088 18.8337C115.536 17.4359 114.76 15.5274 114.76 13.1083ZM120.714 13.1083C120.714 15.8616 122.003 17.2383 124.58 17.2383C125.675 17.2383 126.885 17.0818 128.209 16.7687V9.19691C127.25 8.9683 126.075 8.85274 124.683 8.85274C122.037 8.85274 120.714 10.2717 120.714 13.1083ZM145.556 19.0523C147.267 19.0523 148.921 18.5926 150.517 17.6757V15.2975H145.385C144.609 15.2975 143.993 15.4702 143.536 15.8132C143.081 16.1573 142.853 16.6009 142.853 17.1439C142.853 17.7067 143.087 18.1665 143.554 18.5193C144.022 18.8747 144.689 19.0523 145.556 19.0523ZM147.096 8.63407C145.544 8.63407 144.46 8.97824 143.845 9.66658C143.365 10.2095 142.728 10.4804 141.929 10.4804H139.431C139.135 10.4804 138.89 10.3909 138.694 10.2145C138.501 10.0368 138.405 9.81195 138.405 9.54233C138.405 6.62247 141.438 5.16255 147.506 5.16255C150.152 5.16255 152.28 5.70427 153.888 6.78897C155.495 7.87366 156.3 9.55227 156.3 11.826V21.2739C156.3 21.5448 156.203 21.7684 156.009 21.9461C155.815 22.1225 155.569 22.212 155.274 22.212H152.057C151.761 22.212 151.515 22.1225 151.321 21.9461C151.128 21.7684 151.031 21.5448 151.031 21.2739V20.8043C149.274 21.9511 147.255 22.5239 144.974 22.5239C142.648 22.5239 140.748 22.0542 139.277 21.1174C137.806 20.178 137.07 18.8535 137.07 17.1439C137.07 15.433 137.806 14.1197 139.277 13.2015C140.748 12.2845 142.648 11.826 144.974 11.826H150.517C150.517 10.637 150.243 9.80822 149.697 9.33856C149.149 8.8689 148.282 8.63407 147.096 8.63407Z" fill="#006540"/>
<path d="M19.8744 26.9431C18.4303 26.4621 16.9781 25.9503 15.531 25.4116V25.3428C17.2763 25.2051 19.2862 24.6449 20.8952 24.5686C21.6808 24.5314 22.5469 24.9166 23.1951 25.3093C23.6877 25.687 24.5069 26.2825 24.9913 26.5821C23.2023 26.2909 21.6798 26.2165 19.8744 26.9431ZM21.7643 21.5009C22.4034 24.4104 26.0029 26.2593 28.0688 26.9999C29.9515 27.6754 31.8292 27.9648 33.7648 28.2635C35.0094 28.4551 36.2673 28.6496 37.5628 28.9408V26.0313C35.7279 25.367 33.6854 25.0664 31.5758 24.7566C29.1588 24.4021 26.6848 24.0383 24.4367 23.0846C23.9716 22.8873 22.266 21.9606 21.7643 21.5009ZM25.3567 2.35405C25.7668 1.56875 26.1881 0.77972 26.6207 0H24.9232L24.7329 0.592698C24.5263 1.23657 24.1986 1.94558 23.7762 2.69459C24.2779 2.49175 24.8112 2.3801 25.3567 2.35405ZM27.6689 0H29.5475C28.8789 0.904401 28.2052 1.81531 27.5345 2.69552C27.3941 2.64528 27.2516 2.59969 27.1091 2.56061C26.8608 2.49175 26.6115 2.43872 26.3622 2.40336C26.7825 1.6041 27.2191 0.797399 27.6689 0ZM5.12515 0C4.81475 0.915566 4.51861 1.87207 4.22348 2.85742C3.275 2.22378 2.04869 2.03769 0.84375 2.15865V2.15214L0.844769 2.11864V2.10841L0.845786 2.09166L0.846803 2.06281L0.847822 2.05072L0.84884 2.04142L0.850874 2.00792L0.851893 1.99675L0.85291 1.9828L0.855963 1.95302L0.857998 1.94279L0.859017 1.9279L0.863087 1.89812L0.865121 1.88789L0.86614 1.87579L0.868175 1.86277L0.874281 1.83299V1.82741L0.881405 1.79019L0.883441 1.7781L0.884458 1.7753L0.892599 1.73809L0.894635 1.72971L0.901759 1.69808L0.904812 1.68505L0.907866 1.67389L0.9099 1.66737L0.91906 1.63295L0.922113 1.62178L0.924147 1.6162L0.934325 1.58084L0.937378 1.57247L0.941448 1.55758L0.959766 1.50733L0.968926 1.47849L0.977067 1.45802L0.98928 1.42918L0.996404 1.41057L1.00963 1.37893L1.01269 1.37335L1.02185 1.35381L1.03202 1.33055L1.04322 1.30729L1.05441 1.28217L1.05848 1.27472L1.06459 1.26263L1.07985 1.23378L1.08392 1.22634L1.088 1.21796L1.10529 1.18633L1.11649 1.16679L1.13176 1.14074L1.13481 1.13515L1.16636 1.08398L1.18976 1.04955L1.22029 1.00489L1.23149 0.989072L1.25184 0.961158L1.25693 0.954644L1.261 0.948131L1.28441 0.917427L1.28848 0.911844L1.2956 0.904401L1.30171 0.896026L1.30374 0.894166L1.30476 0.891375L1.3068 0.889513L1.31087 0.88393L1.3129 0.88207L1.31697 0.876487L1.31901 0.874627L1.32104 0.871835L1.32308 0.869974L1.32512 0.867182L1.32715 0.865322L1.33122 0.859739L1.33733 0.852296L1.3414 0.848574L1.3475 0.840199L1.34954 0.838338L1.35157 0.835546L1.35259 0.833686H1.35361L1.35565 0.830895L1.35768 0.829033L1.36277 0.82252L1.38923 0.793677L1.3933 0.788094L1.41772 0.762972L1.41976 0.76018L1.4218 0.75832L1.42383 0.755529L1.42587 0.753667L1.4279 0.750875L1.43503 0.744362L1.43706 0.741571L1.45945 0.71831L1.46352 0.714588L1.46657 0.712726L1.46861 0.709936L1.50219 0.676439L1.50525 0.673647L1.52254 0.6569L1.5429 0.639222L1.54799 0.634569L1.58259 0.602003H1.58361L1.58869 0.598281L1.60498 0.583393L1.62533 0.566646L1.63042 0.561994L1.66808 0.53222L1.69657 0.509889L1.71183 0.498722L1.71489 0.495931L1.72812 0.485696L1.75559 0.465227L1.75967 0.463365L1.80139 0.433591L1.80241 0.432661L1.82581 0.417773L1.84821 0.402887L1.85126 0.400095L1.86143 0.393582L1.894 0.373111L1.89909 0.369389L1.94183 0.344267L1.9632 0.332172L1.9917 0.316354L2.04055 0.28937L2.06293 0.278205L2.09041 0.264249L2.09448 0.262388L2.09754 0.260528C2.1301 0.24471 2.16063 0.229822 2.1932 0.215866L2.24612 0.193535L2.24917 0.191673L2.29802 0.172133L2.30209 0.171203L2.35196 0.151664C2.38758 0.138638 2.42421 0.126541 2.46085 0.114445L2.51682 0.0986271L2.5728 0.083741L2.57483 0.082811L2.62877 0.068853H2.63182L2.68576 0.0558267H2.68983L2.69186 0.0548968H2.6939L2.70204 0.0530351H2.70408L2.70611 0.0521052H2.70916L2.7285 0.0474537H2.73155L2.73359 0.046522H2.73664L2.73868 0.045592H2.74071L2.74173 0.0446621H2.7458L2.80279 0.0344274L2.8608 0.0251226H2.86792L2.86894 0.0241909H2.87301L2.87505 0.023261L2.90761 0.0195394L2.90863 0.0186095H2.91575L2.91779 0.0176778H2.92695L2.92899 0.0167478H2.93L2.93509 0.0158179H2.93713L2.96053 0.0139562H2.96257L2.97071 0.0120964H2.9819L2.98394 0.0111646H2.99005L2.99106 0.0102347H3.00226L3.0165 0.00837303H3.02058L3.02872 0.00744309H3.03584L3.03788 0.00651315H3.03889L3.09996 0.0027916L3.1488 0.000929942H3.18137L3.19256 0H5.12515ZM4.9786 3.55433C5.23607 3.89767 5.38465 4.28102 5.41213 4.68949C5.9281 4.92861 6.3657 5.21426 6.71986 5.54178C7.31724 3.87162 7.86882 2.22192 8.39496 0.649457L8.61173 0H6.09805C5.71031 1.12399 5.34496 2.31683 4.9786 3.55433ZM7.39458 6.38012C8.07439 4.50898 8.69416 2.65551 9.28238 0.897888L9.5826 0H10.7407C10.6217 0.585255 10.4985 1.1854 10.3632 1.80322C9.92149 3.81672 9.18977 6.18379 8.56288 8.26801C8.49673 8.23917 8.42855 8.21218 8.36036 8.1852C8.17107 8.11076 7.97873 8.04656 7.78537 7.99073C7.80674 7.41013 7.67241 6.86861 7.39458 6.38012ZM9.39942 8.69137C10.2767 9.218 10.8659 9.88421 11.1356 10.6369C11.9833 9.15566 12.6876 7.63344 13.2971 6.11215C12.5247 4.8579 12.2734 3.46036 12.2601 3.38127C12.2265 3.18773 12.3415 2.99792 12.539 2.92349C12.6295 2.88813 13.4559 2.58015 14.6486 2.34195C14.9081 1.54827 15.1503 0.765763 15.3844 0H11.4999C11.331 0.732267 11.1671 1.47942 11.0002 2.24053C10.5423 4.33684 10.0629 6.51969 9.39942 8.69137ZM15.6714 2.17354C15.9075 1.43662 16.1314 0.710867 16.3482 0H19.8714C19.5834 0.775068 19.3035 1.52315 19.0348 2.19773C17.8665 2.00047 16.6932 2.04142 15.6714 2.17354ZM19.9426 2.40057C20.2204 1.69715 20.5095 0.921149 20.8066 0.12189L20.8514 0H23.9553L23.8424 0.353572C23.6317 1.01047 23.302 1.7232 22.8807 2.46663C22.035 2.27868 21.1038 2.27217 20.14 2.46012C20.0739 2.43965 20.0077 2.42011 19.9426 2.40057ZM28.5705 2.81927C29.6381 2.75135 30.7046 2.82765 31.7162 3.03235C32.7084 2.03025 33.429 1.01047 34.1006 0H30.668L30.4075 0.352642C29.7979 1.17795 29.1842 2.00792 28.5705 2.81927ZM32.7176 3.28357C33.7343 2.19308 34.469 1.08863 35.1865 0H38.2691C37.4325 0.802981 36.4159 1.68226 35.1305 2.65086C34.5789 3.0677 33.893 3.22216 33.2407 3.45571C33.0687 3.3943 32.8937 3.33661 32.7176 3.28357ZM36.3171 3.02211C36.8453 2.99327 37.3806 3.05003 37.8905 3.19239C38.381 3.32823 38.8491 3.5441 39.2654 3.83812C39.9503 3.29008 40.8407 3.22402 41.7048 3.46408C41.9968 3.54596 42.2859 3.66226 42.5637 3.80649C42.7204 3.84836 42.8843 3.89116 43.0522 3.93396C43.33 4.0056 43.6221 4.08097 43.9192 4.16471C44.6194 4.35917 45.3511 4.59551 45.9963 4.92117C46.324 4.36476 46.5164 3.65017 46.5886 3.04351C45.9699 2.97931 45.3216 2.87789 44.6601 2.77275C42.867 2.49082 40.0765 2.00885 38.1144 2.29543C37.517 2.53269 36.9176 2.77461 36.3171 3.02211ZM46.7545 5.3836C47.1748 4.70437 47.4262 3.86045 47.5147 3.10771C47.9605 3.11981 48.7156 2.90581 49.1115 2.83695C48.2057 3.71158 48.0663 6.10471 48.3167 6.95793C47.9635 6.54016 47.3509 5.86744 46.9041 5.50084C46.8553 5.46083 46.8054 5.42175 46.7545 5.3836ZM49.43 8.45782C50.3632 8.55831 51.4542 9.50551 52.25 10.462V8.89513C50.8425 8.08657 49.7282 7.19427 49.0911 6.08982C48.9324 7.1617 49.0881 7.48271 49.43 8.45782ZM52.25 4.09027C51.5488 3.66133 50.8079 2.86394 50.6726 2.35591C50.4935 1.69063 50.7632 0.878348 51.0308 0.277275C51.7564 0.651318 52.25 1.36218 52.25 2.17354V4.09027ZM49.9755 2.74391C50.3805 3.54503 51.2089 4.33963 52.25 5.10168V7.87908C50.867 7.01097 49.8808 6.04795 49.5552 4.83929C49.3862 4.21123 49.313 3.08352 49.9755 2.74391ZM11.2333 12.2457C12.3242 10.5327 13.2025 8.74998 13.9434 6.96538C14.0635 7.09285 14.1907 7.21381 14.326 7.32546C14.4756 7.44735 14.6334 7.56086 14.7972 7.66601C14.5275 8.11914 14.5418 8.58716 14.8257 9.00214C13.7734 10.2955 12.884 11.1617 11.6058 12.4002C11.4796 12.3508 11.3544 12.3043 11.2302 12.2587L11.2333 12.2457ZM12.312 12.7165L12.5054 12.7705C13.5251 11.7674 14.5367 10.7002 15.478 9.59577C15.5167 9.62089 15.5564 9.64508 15.5961 9.66834C15.5869 9.72045 15.5869 9.77534 15.6002 9.83024C15.6795 10.1736 15.8057 10.4844 15.9747 10.7588C14.8491 11.8326 14.0472 12.4625 13.0397 13.1808C12.826 13.0152 12.5827 12.8589 12.312 12.7165ZM14.1927 13.4292H15.531V14.5402C16.1294 14.3792 16.7105 14.2425 17.2743 14.1271C16.7481 13.4032 16.5405 12.4625 16.7298 11.5683C16.6779 11.5302 16.628 11.4902 16.5761 11.4483C16.5527 11.4288 16.5293 11.4092 16.5059 11.3888C15.5045 12.3853 14.9753 12.8486 14.1927 13.4292ZM40.4439 1.39382C41.7272 0.909052 43.0135 0.444757 44.2978 0H49.8788L49.9307 0.000929942H49.9399L49.9795 0.0027916H49.9948L49.9979 0.00372154H50.0131L50.0162 0.00465149H50.0274L50.0304 0.0055832H50.0426L50.0549 0.00651315L50.064 0.00744309H50.0671C50.1139 0.747154 49.5816 1.89626 49.1786 2.04235C48.1274 2.45919 46.5204 2.20517 44.8189 1.9372C43.6597 1.7539 42.0325 1.48035 40.4439 1.39382ZM38.6609 1.485C39.9401 0.981629 41.0931 0.480114 42.2604 0H39.53C39.0781 0.459644 38.5683 0.946271 37.9872 1.45988C38.0645 1.44965 38.5815 1.49338 38.6609 1.485ZM13.4508 4.26892C15.247 5.39663 17.0809 6.63227 18.9148 7.94607C17.5633 7.89676 15.9971 7.55714 14.9468 6.69368C14.1764 6.06097 13.7103 5.03654 13.4508 4.26892ZM20.0515 8.77045C18.7713 8.8728 17.0422 8.72672 15.6002 8.09309C15.5004 8.2708 15.4648 8.47364 15.7986 8.74812C16.5598 9.37339 18.0121 9.57809 19.5498 9.79395C20.3527 9.90747 21.2595 10.0889 22.1571 10.3513C21.4569 9.81535 20.7547 9.28686 20.0515 8.77045ZM25.8798 13.325C26.2523 13.6349 26.6247 13.9475 26.9972 14.2648C25.6345 14.0508 24.1518 14.2238 22.7789 14.383C21.4264 14.5402 20.1309 14.6909 19.1977 14.4378C19.1315 14.3969 19.0532 14.3709 18.9717 14.3653C18.7672 14.2899 18.584 14.1894 18.4263 14.0601C17.8492 13.5856 17.5409 12.8068 17.5969 12.0438C18.4283 12.362 19.3351 12.375 20.3385 12.389C21.7694 12.4085 23.5401 12.4337 25.8798 13.325ZM29.0417 16.0438C29.5068 16.4569 29.9729 16.8775 30.439 17.3027C29.0417 17.0124 27.4908 17.0887 25.9714 17.1631C23.7691 17.2711 21.6879 17.3734 20.4097 16.3239C20.1034 16.0717 19.8551 15.7619 19.6628 15.386C20.6306 15.4883 21.7449 15.359 22.8959 15.225C25.086 14.9701 27.3503 14.7067 28.8677 15.9536C28.9196 15.9964 28.9796 16.0261 29.0417 16.0438ZM33.3414 20.0336C33.8309 20.5072 34.3215 20.9892 34.813 21.4767C32.9944 20.8952 30.8715 20.6561 28.7985 20.4235C25.8777 20.095 23.1188 19.7852 21.6391 18.5691C21.2961 18.2871 21.0611 18.0201 20.9501 17.6219C22.4105 18.1876 24.2403 18.0983 26.0212 18.0108C28.3365 17.8963 30.7301 17.7791 32.2881 19.0594C32.3411 19.1041 32.394 19.1497 32.4449 19.1971C32.5354 19.2939 32.6291 19.3916 32.7247 19.4893L32.7654 19.5377C32.7909 19.5693 32.8204 19.5963 32.853 19.6195C32.9547 19.7219 33.0595 19.8252 33.1654 19.9275C33.2163 19.9768 33.2763 20.0122 33.3414 20.0336ZM36.481 23.1609C36.4525 23.1506 36.424 23.1367 36.3975 23.1199C34.4507 21.914 31.5198 21.5847 28.6855 21.2655C25.6152 20.9212 22.7158 20.5947 21.0183 19.1999L21.0102 19.1925C21.1343 19.6195 21.3989 20.0262 21.8029 20.4197C21.8121 20.4272 21.8213 20.4356 21.8294 20.4449C21.9169 20.5277 22.0095 20.6095 22.1093 20.6914C24.8 22.9022 28.3192 23.4186 31.7223 23.9192C33.6936 24.2085 35.7014 24.5035 37.5628 25.1288V24.2793C37.3328 24.0392 37.1028 23.801 36.8738 23.5647C36.8453 23.5433 36.8199 23.5181 36.7975 23.4912L36.7731 23.4605L36.481 23.1609ZM37.5628 34.8827L37.2107 34.8473C34.0263 34.5803 27.0013 35.869 25.6671 32.1909C26.3235 31.9304 26.9137 31.6336 27.4114 31.3516C29.3928 31.842 31.7406 31.8643 34.1719 31.8876C35.3005 31.8987 36.4383 31.9099 37.5628 31.9648V34.8827ZM37.5628 40.1044C34.7906 40.0504 30.9417 39.8541 29.693 37.9281C31.7101 38.3626 34.4843 38.5105 37.5628 38.6399V40.1044ZM37.5628 44.2691C35.5976 44.0477 34.0518 43.6997 33.2427 43.0353C32.2769 42.2417 31.6775 41.2247 31.5116 40.1202C33.0646 40.5957 35.1366 40.7669 37.5628 40.9018V44.2691ZM50.3815 13.3781C50.3266 11.867 50.1383 10.4853 49.6549 9.26732C50.2218 9.22266 51.3341 10.502 52.1665 11.8233L52.1655 11.8261L52.1594 11.8484L52.1553 11.8596L52.1431 11.8958L52.1421 11.8996L52.135 11.92L52.1289 11.9359L52.1187 11.9638V11.9647L52.1167 11.9712L52.1146 11.9749V11.9759L52.1136 11.9777V11.9787L52.1116 11.9824V11.9833L52.1096 11.987V11.9889L52.1085 11.9898V11.9917L52.1065 11.9954V11.9963L52.1055 11.9982L52.1045 11.9991V12.001L52.1035 12.0029L52.1024 12.0038V12.0056L52.1014 12.0075V12.0094L52.1004 12.0103L52.0994 12.0122V12.014L52.0984 12.0149V12.0168L52.0973 12.0187V12.0196L52.0953 12.0233V12.0243L52.0933 12.028V12.0298L52.0923 12.0308L52.0912 12.0326V12.0345L52.0902 12.0354L52.0892 12.0373V12.0382L52.0872 12.0419V12.0429L52.0851 12.0466V12.0484L52.0831 12.0531L52.0821 12.054L52.0811 12.0559V12.0568L52.079 12.0605V12.0624L52.078 12.0633V12.0652L52.076 12.0689V12.0698L52.075 12.0717L52.0729 12.0745L52.0709 12.081L52.0688 12.0838L52.0678 12.0875L52.0658 12.0903L52.0648 12.094L52.0627 12.0968L52.0617 12.0987V12.0996L52.0597 12.1033L52.0577 12.1099L52.0556 12.1126L52.0546 12.1154L52.0526 12.1192L52.0515 12.1219L52.0495 12.1257L52.0485 12.1285L52.0465 12.1313L52.0454 12.134L52.0434 12.1378L52.0414 12.1406L52.0404 12.1443L52.0383 12.1471V12.148L52.0373 12.1508L52.0353 12.1536L52.0332 12.1592L52.0312 12.1629L52.0292 12.1657L52.0281 12.1694L52.0261 12.1722L52.0251 12.175L52.0231 12.1778L52.021 12.1815L52.02 12.1843L52.0139 12.1955V12.1964L52.0119 12.2001L52.0108 12.2029L52.0088 12.2066L52.0068 12.2094L52.0058 12.2122L52.0037 12.215L52.0017 12.2187L51.9996 12.2215L51.9986 12.2243L51.9966 12.228L51.9956 12.2308L51.9925 12.2336L51.9905 12.2401L51.9885 12.242V12.2429L51.9844 12.2485L51.9834 12.2522L51.9722 12.2699L51.9711 12.2736L51.9691 12.2773L51.9671 12.2792L51.9661 12.282L51.964 12.2857L51.962 12.2876V12.2885L51.961 12.2894L51.9589 12.2932L51.9579 12.2959L51.9559 12.2978L51.9498 12.309L51.9478 12.3108L51.9467 12.3136L51.9447 12.3173L51.9427 12.3192L51.9335 12.335L51.9315 12.3369L51.9111 12.3685V12.3694L51.904 12.3797L51.8999 12.3862L51.8846 12.4085L51.8684 12.4318L51.847 12.4625L51.8246 12.4913L51.8216 12.4969L51.8185 12.4997L51.8134 12.5062L51.8104 12.509L51.8083 12.5127L51.8012 12.522L51.7931 12.5323L51.79 12.5351L51.788 12.5388L51.7849 12.5416L51.7829 12.5453L51.7798 12.5481L51.7758 12.5537L51.7747 12.5546L51.7727 12.5574L51.7696 12.5602L51.7635 12.5676L51.7564 12.5769L51.7534 12.5797L51.7483 12.5862L51.7452 12.589L51.7432 12.5928L51.7371 12.5983L51.7351 12.6021L51.732 12.6049L51.7269 12.6114L51.7208 12.6169L51.7106 12.63L51.7076 12.6328L51.7015 12.6393L51.6984 12.6421L51.6933 12.6486L51.6872 12.6542L51.6852 12.657L51.6821 12.6598L51.6791 12.6635L51.676 12.6663L51.674 12.67L51.6648 12.6784L51.6597 12.6849L51.6506 12.6932L51.6496 12.6951L51.6302 12.7146L51.6231 12.7221L51.5956 12.7481L51.5753 12.7677L51.5661 12.7761L51.557 12.7854L51.5478 12.7937L51.5376 12.8021L51.5101 12.8272H51.5091L51.4908 12.844L51.442 12.884L51.4257 12.897L51.4226 12.8998L51.4124 12.9073L51.4023 12.9156L51.3717 12.938L51.3616 12.9463L51.3524 12.9528L51.3412 12.9612L51.3382 12.964L51.331 12.9677L51.3107 12.9826L51.2995 12.9901L51.2924 12.9956L51.2893 12.9975L51.2791 13.0049L51.2679 13.0115L51.2578 13.0189L51.2476 13.0254L51.2466 13.0264L51.2364 13.0329L51.2252 13.0394L51.215 13.0459L51.2038 13.0533L51.1824 13.0664L51.1601 13.0794L51.1509 13.085L51.1489 13.0859L51.1387 13.0924L51.1275 13.0989L51.1153 13.1054L51.1051 13.1119L51.1021 13.1129L51.0929 13.1185L51.0817 13.124L51.0593 13.1361L51.0481 13.1427L51.0247 13.1548L51.0135 13.1603L51.0023 13.165L51.0013 13.1659L50.9901 13.1715L50.9667 13.1827L50.9545 13.1882L50.9524 13.1901L50.9433 13.1938L50.9311 13.1994L50.9199 13.205L50.8955 13.2162L50.8843 13.2208L50.8812 13.2217L50.8731 13.2255L50.87 13.2264L50.8639 13.2292L50.8609 13.231L50.8568 13.2329L50.8537 13.2338L50.8456 13.2376H50.8436L50.8405 13.2385L50.8385 13.2394L50.8364 13.2413H50.8334L50.8313 13.2431H50.8293L50.8273 13.245L50.8252 13.2459L50.8222 13.2469L50.8181 13.2487L50.8151 13.2497L50.811 13.2515L50.8079 13.2524L50.8069 13.2534L50.8039 13.2543L50.7998 13.2562L50.7967 13.2571H50.7947L50.7927 13.258L50.7896 13.259L50.7835 13.2618L50.7805 13.2627L50.7764 13.2645L50.7733 13.2655L50.7693 13.2673L50.7662 13.2683L50.7601 13.2711H50.7571L50.755 13.2729L50.753 13.2739L50.7499 13.2748L50.7479 13.2757H50.7459L50.7418 13.2776H50.7408L50.7367 13.2794H50.7337L50.696 13.2934L50.6807 13.298L50.6787 13.299L50.6756 13.2999L50.6726 13.3018L50.6655 13.3036L50.6634 13.3046L50.5779 13.3306H50.5769L50.5749 13.3315H50.5729L50.5688 13.3334H50.5657L50.5535 13.3371L50.5515 13.3381L50.5413 13.3408H50.5383L50.523 13.3455L50.521 13.3464L50.5138 13.3483H50.5108L50.5016 13.3511H50.5006L50.4986 13.352H50.4965L50.4955 13.3529H50.4935L50.4914 13.3539H50.4874L50.4853 13.3548H50.4843L50.4823 13.3557H50.4802L50.4782 13.3567H50.4762L50.4741 13.3576H50.4721L50.4711 13.3585H50.4691L50.467 13.3595H50.465L50.464 13.3604H50.4619L50.4599 13.3613H50.4579L50.4558 13.3622H50.4538L50.4518 13.3632H50.4507L50.4487 13.3641H50.4446L50.4436 13.365H50.4416L50.4385 13.366H50.4375L50.4355 13.3669H50.4334L50.4314 13.3678H50.4294L50.4273 13.3688H50.4253L50.4243 13.3697H50.4222L50.4202 13.3706H50.4161L50.4151 13.3715H50.4131L50.411 13.3725H50.409L50.407 13.3734H50.4019L50.3998 13.3743H50.3978L50.3958 13.3753H50.3917L50.3907 13.3762L50.3887 13.3771H50.3846L50.3825 13.3781H50.3815ZM38.4431 13.4292C38.5398 10.0349 38.326 6.93095 35.8572 4.90256C35.5702 4.66715 35.2608 4.44943 34.9311 4.25124C36.1564 3.63342 37.8152 3.77299 38.8848 4.65227C40.5609 6.02841 40.8774 9.9084 40.9476 13.4292H38.4431ZM37.5628 23.012C37.5557 23.0017 37.5485 22.9924 37.5414 22.9831C35.9813 21.0729 34.7489 17.0171 33.5582 13.0943C32.3166 9.00586 31.1432 5.14448 29.6167 3.8893C29.5119 3.80369 29.4071 3.72181 29.3002 3.64272C31.5646 3.63435 33.7546 4.31637 35.2364 5.53341C37.2555 7.19241 37.6066 10.0768 37.5628 13.4292V23.012ZM35.2292 20.777C34.2859 18.6612 33.4656 15.9619 32.6637 13.3213C31.5116 9.52971 30.322 5.6097 28.9959 4.52107C28.5919 4.1889 28.1645 3.91721 27.7279 3.70786C27.6943 3.69669 27.6628 3.6818 27.6333 3.66413C26.6726 3.22588 25.6691 3.09004 24.7583 3.28543C24.9252 3.4036 25.084 3.53293 25.2346 3.6725C28.3639 6.56993 28.9735 9.07564 29.5628 11.4995C30.096 13.6963 30.6476 15.9619 33.1389 18.6314C33.2427 18.73 33.3414 18.8342 33.434 18.9412C33.5643 19.0743 33.6997 19.2083 33.8401 19.3432C33.8951 19.3972 33.9317 19.4595 33.951 19.5256C34.3764 19.9378 34.8028 20.3546 35.2292 20.777ZM30.094 15.9294C29.9363 15.787 29.7775 15.6456 29.6198 15.5051C29.5953 15.4372 29.5516 15.373 29.4885 15.3227C29.3501 15.2083 29.2056 15.1041 29.059 15.0101C28.711 14.704 28.3619 14.4006 28.0139 14.101C28.0027 14.0722 27.9884 14.0452 27.9701 14.0173C25.9429 11.0463 25.2193 9.02726 24.6372 7.40455C24.0775 5.84232 23.6724 4.71368 22.3912 3.6604C22.1693 3.47897 21.9393 3.31521 21.7032 3.16912C22.8328 3.1989 23.823 3.57294 24.5741 4.26799C27.5162 6.99236 28.0698 9.27104 28.656 11.6837C28.9878 13.0468 29.3257 14.4369 30.094 15.9294ZM24.856 11.4762C23.4261 10.329 21.9729 9.21335 20.5146 8.14333C20.4545 8.03819 20.3477 7.96003 20.2225 7.92932C18.0131 6.31871 15.7966 4.81696 13.6381 3.47059C15.2674 3.00909 19.2241 2.19959 21.7714 4.29218C22.8674 5.19286 23.2206 6.17821 23.7549 7.66973C24.1589 8.79558 24.6698 10.2201 25.6885 12.055C25.4351 11.8465 25.1552 11.6549 24.856 11.4762ZM24.1395 11.907C22.6395 11.5721 21.4081 11.5553 20.3527 11.5404C19.0084 11.5209 18.0375 11.5078 17.1969 10.8175C16.9659 10.6276 16.7888 10.395 16.6616 10.114C17.4758 10.3615 18.4263 10.4946 19.4083 10.6332C21.0885 10.8705 22.8196 11.1133 24.1395 11.907ZM19.9599 17.3036C18.9321 17.5446 17.7342 17.9447 16.6463 18.2992C16.8071 18.5123 16.9374 18.7579 17.0483 19.0445C17.1145 19.0669 17.1796 19.0901 17.2437 19.1162C17.9307 19.3841 18.5362 19.8438 19.0481 20.4821C19.2496 20.497 19.448 20.5295 19.6424 20.5844C19.736 20.6105 19.8286 20.6412 19.9192 20.6765C20.4871 20.8989 20.9786 21.2767 21.3491 21.7475C21.3643 21.7121 21.3806 21.6786 21.3999 21.6451C21.2707 21.4088 21.1608 21.1753 21.0733 20.9473C20.1635 20.0373 19.8276 19.0203 20.0739 17.9177C20.0128 17.7279 19.9762 17.5251 19.9599 17.3036ZM18.5616 15.131C18.7702 15.733 19.0735 16.2439 19.4694 16.6579C18.5006 16.8626 17.4849 17.1296 16.4133 17.4739C16.224 17.031 15.9299 16.6393 15.531 16.3015V15.399C16.3441 15.1403 17.1593 14.8975 17.8747 14.7458C18.0853 14.9068 18.3153 15.0333 18.5616 15.131ZM27.4623 27.6977C29.5027 28.4663 31.5239 28.7789 33.6111 29.0999C34.9036 29.3 36.2123 29.5019 37.5628 29.8192V31.1181C36.4199 31.0604 35.2822 31.0492 34.182 31.039C32.1416 31.0195 30.1652 30.9999 28.4586 30.7003C28.7985 30.4677 29.0041 30.3039 29.0427 30.2732C29.2035 30.143 29.2463 29.9299 29.1465 29.7568C29.1089 29.6917 28.482 28.618 27.4623 27.6977ZM41.8767 13.4292C41.8106 9.93166 41.5145 6.24893 39.9309 4.4364C40.7797 3.82975 42.0752 4.41221 42.7855 4.99653C44.8586 6.69833 45.116 9.75674 44.9949 13.4292H41.8767ZM45.9241 13.4292H49.3272C49.2967 10.5234 48.5884 8.02516 46.2833 6.13169C45.746 5.69065 44.9715 5.37802 44.1787 5.13145C45.8243 7.10215 46.035 10.0256 45.9241 13.4292ZM9.80344 11.7991C9.98255 11.8493 10.1627 11.9024 10.3459 11.9591C10.6166 10.2731 9.02084 9.36688 7.99501 8.96492C5.99526 8.18241 3.5172 8.63275 0.84375 9.37153V11.2548L0.844769 11.3031V11.3171L0.846803 11.3599V11.3664L0.849857 11.4129L0.850874 11.4167V11.4213L0.851893 11.426V11.4306L0.853927 11.4604L0.854946 11.465V11.4697L0.855963 11.4734V11.4781L0.85698 11.4818V11.4827L0.863087 11.5311V11.5339C3.68818 11.1319 6.46238 10.8696 9.80344 11.7991ZM1.17043 12.349L1.18875 12.3788L1.19078 12.3806V12.3825L1.19282 12.3843L1.19383 12.3862L1.19994 12.3946L1.20401 12.402L1.20605 12.4039L1.20808 12.4076L1.22029 12.4243L1.22742 12.4346L1.23759 12.4495L1.26609 12.4876L1.27423 12.4979L1.27525 12.5006L1.2956 12.5248L1.29967 12.5304L1.30069 12.5323L1.30781 12.5416L1.30985 12.5425L1.31087 12.5444L1.31189 12.5453L1.3129 12.5472L1.31596 12.55L1.31901 12.5555L1.32104 12.5565L1.32206 12.5583L1.3241 12.5602L1.32512 12.5621L1.32715 12.5639L1.32817 12.5658L1.32919 12.5667L1.33122 12.5704L1.33326 12.5714L1.33427 12.5732L1.33631 12.5751L1.34649 12.5872L1.35056 12.5928L1.35768 12.5993L1.36175 12.6049L1.36277 12.6067L1.36786 12.6114L1.37193 12.6169L1.37396 12.6188L1.376 12.6216L1.38109 12.6263L1.38312 12.629L1.38414 12.6309L1.38618 12.6337L1.38923 12.6356L1.39126 12.6384L1.3933 12.6402L1.39533 12.643L1.39839 12.6449L1.39941 12.6477L1.40246 12.6504L1.40653 12.6551L1.40856 12.657L1.4106 12.6598L1.41365 12.6625L1.43299 12.6839L1.4452 12.6951L1.4737 12.7249L1.4798 12.7314L1.49202 12.7435L1.51339 12.763L1.51949 12.7695L1.52662 12.7751L1.55817 12.8049H1.55918L1.58361 12.8272L1.59277 12.8347L1.606 12.8468L1.61312 12.8514L1.63754 12.8728L1.6467 12.8793L1.65688 12.8877L1.68029 12.9063L1.68232 12.9082L1.71183 12.9305L1.7271 12.9426L1.74644 12.9566L1.75559 12.964L1.76475 12.9696L1.78511 12.9845L1.80139 12.9956L1.81971 13.0077L1.83599 13.0189L1.84821 13.0264L1.8594 13.0338L1.86245 13.0366L1.894 13.0561L1.90418 13.0626L1.93471 13.0803L1.94183 13.085L1.95099 13.0896C1.97745 13.1054 2.00493 13.1213 2.03241 13.1352L2.04055 13.1399L2.04665 13.1427L2.08024 13.1603L2.09041 13.165L2.12807 13.1836L2.17692 13.2059L2.19218 13.2134H2.1932L2.20643 13.219L2.23899 13.2329L2.24612 13.2366L2.25222 13.2385L2.29598 13.2562L2.29802 13.2571L2.30107 13.258L2.34483 13.2757L2.35196 13.2776L2.3601 13.2794C2.38961 13.2906 2.42014 13.3008 2.45169 13.3111L2.47001 13.3167L2.51682 13.3306L2.56364 13.3436L2.5728 13.3464L2.58195 13.3483L2.62877 13.3595H2.62979L2.68067 13.3715L2.68678 13.3734H2.69085L2.74377 13.3846L2.79261 13.3929L2.80279 13.3948L2.8089 13.3957L2.8608 13.4041L2.91677 13.4106L2.91983 13.4116H2.92288L2.97987 13.4171L3.03279 13.4218L3.03889 13.4227H3.04602L3.09996 13.4264L3.15287 13.4283H3.16712L3.22208 13.4292H12.1655C9.29867 11.9489 4.35476 11.4874 1.17043 12.349ZM6.85724 7.79162C5.01829 7.52086 2.98496 7.90606 0.84375 8.48574V5.06818C2.43846 4.92024 3.77773 4.96025 4.67838 5.31289L4.70281 5.32312C4.73741 5.34266 4.77608 5.35848 4.8178 5.36965C6.11128 5.91396 6.82061 6.76161 6.85724 7.79162ZM0.84375 2.98583C1.72405 2.92628 2.44762 2.97559 2.96257 3.17657C3.42663 3.35894 4.12782 3.72367 4.38732 4.33312C3.4246 4.10888 2.21864 4.09306 0.84375 4.21402V2.98583ZM21.1455 23.6903C21.1414 23.6698 21.1384 23.6484 21.1374 23.627C21.0773 22.691 20.426 21.7987 19.5539 21.4563C19.3585 21.38 19.1498 21.339 18.929 21.3269C18.8506 21.3455 18.7682 21.3446 18.6909 21.3251C17.7739 21.3576 16.6799 21.8238 15.531 22.3346V24.4942C16.6514 24.4002 17.5714 24.1397 18.4049 24.0169C19.3178 23.882 20.2662 23.6363 21.1455 23.6903ZM17.9164 20.564C17.1542 20.7147 16.3553 21.0329 15.531 21.393V17.8098C16.0622 18.3364 16.3838 19.6521 16.5751 19.7945C16.6586 19.8559 16.7786 19.8568 16.8784 19.8959C17.258 20.0438 17.6019 20.2653 17.9164 20.564ZM15.531 29.0032C15.6979 29.2032 15.8576 29.3967 16.0113 29.5838C17.0911 30.8985 17.8706 31.8485 19.4541 32.4691C19.7279 32.577 20.0037 32.6636 20.2785 32.7324C19.1977 33.0358 18.1301 32.9725 17.1735 32.5352C16.5659 32.256 16.0225 31.9713 15.531 31.6782V29.0032ZM15.531 32.6785V34.0388C16.1996 33.9951 16.8173 33.8211 17.3455 33.5196C17.146 33.4563 16.9496 33.3819 16.7583 33.2944C16.3197 33.0934 15.9116 32.8878 15.531 32.6785ZM18.5341 33.7476C18.3672 33.8918 18.1902 34.023 18.0029 34.1411C20.0892 35.3656 20.6957 35.8755 23.0109 36.524C23.2888 36.6012 23.532 36.765 23.7264 37.0125C23.7803 37.0814 23.8088 37.1605 23.8129 37.2405C24.1395 37.0181 24.4906 36.8301 24.8652 36.6896C25.4035 36.4868 25.9978 36.4003 26.5718 36.3798C26.3927 36.177 26.2451 35.9695 26.1301 35.7583C24.164 35.1404 22.1744 34.4919 20.1492 33.6405V33.6368C19.6068 33.7494 19.0633 33.7866 18.5341 33.7476ZM21.0885 33.3158C22.5764 33.9029 24.3848 34.3058 25.8411 34.7692C25.8299 34.5422 25.8564 34.3151 25.9235 34.0927C25.3872 33.5931 25.0117 33.0544 24.8 32.498C23.934 32.7669 22.9875 32.9474 22.0085 32.9446C21.8162 33.0497 21.2839 33.2302 21.0885 33.3158ZM22.1215 32.1481C24.5079 32.1165 26.757 30.7971 27.8103 30.0769C25.9408 29.6005 24.0103 29.0534 22.0523 28.444C19.8968 27.7703 17.7078 27.0176 15.531 26.2016V27.6345C16.0062 28.1648 16.4011 28.6449 16.7532 29.0748C17.5165 30.0034 18.0864 30.6985 18.8812 31.2121C19.1834 31.4214 19.5172 31.6029 19.9101 31.7582C20.4911 31.9881 21.0834 32.1053 21.6727 32.1388C21.8172 32.0699 21.9871 32.0774 22.1215 32.1481ZM17.1124 34.6073C18.3611 35.3665 19.6373 36.0132 20.9196 36.5817C20.6713 36.6096 20.4311 36.6664 20.2021 36.7529C20.1502 36.7725 20.0993 36.7929 20.0495 36.8143C19.7218 36.5938 19.3554 36.4282 18.9728 36.3221C17.431 35.8932 16.3146 36.5771 15.531 37.6461V34.8911C16.0927 34.8604 16.629 34.7534 17.1247 34.571L17.1124 34.6073ZM27.7045 29.2665C27.1895 28.6152 26.3866 27.7815 25.4371 27.4093C24.1395 26.9013 22.5367 27.039 21.2402 27.3888C23.4373 28.095 25.6081 28.7259 27.7045 29.2665ZM26.7682 34.732C26.8008 35.3842 27.3351 35.936 27.7116 36.2449C29.0712 37.3614 33.1145 37.6024 37.5628 37.7904V35.9211C33.0382 35.6261 30.2487 36.1165 26.7682 34.732ZM27.3615 37.0479C27.4043 37.0702 27.792 37.3158 27.8378 37.3372C26.1647 38.21 24.3909 39.0697 22.552 39.9006C23.1188 38.3756 25.3628 36.8385 27.3615 37.0479ZM36.8056 46.4129C36.3609 45.9384 35.8572 45.2405 35.5926 44.7892C36.1594 44.8944 36.826 44.9595 37.5546 45.0032L37.5516 45.0293V45.0321L37.5496 45.0554L37.5455 45.0814V45.0851L37.5404 45.1177L37.5373 45.141L37.5302 45.1819V45.1847L37.5221 45.2256L37.52 45.2331L37.515 45.2591L37.4966 45.3308V45.3336L37.4895 45.3587L37.4824 45.3819L37.4753 45.4071L37.4681 45.4313L37.46 45.4554V45.4564L37.4549 45.4713L37.4519 45.4796L37.4437 45.5038L37.4427 45.5066L37.4254 45.5513V45.5522L37.4071 45.595L37.405 45.6015V45.6025L37.3877 45.6406L37.3857 45.6453L37.3674 45.6853L37.3623 45.6974L37.343 45.7364L37.3308 45.7588L37.3196 45.7811L37.3063 45.8034L37.2941 45.8258L37.2809 45.8481L37.2687 45.8695L37.2422 45.9123L37.228 45.9337L37.227 45.9356V45.9365L37.2025 45.9718L37.1974 45.9793L37.171 46.0165L37.17 46.0184L37.1404 46.0584L37.1242 46.0788L37.1089 46.0993L37.0763 46.1384L37.0601 46.1589L37.0438 46.1775L37.0255 46.197L37.0102 46.2147L37.0092 46.2166L37.0061 46.2193L37.0051 46.2212L37.0031 46.2221L37.001 46.2259L36.9939 46.2324L36.9929 46.2342L36.9909 46.2352L36.9898 46.237L36.9868 46.2398L36.9858 46.2417L36.9705 46.2575L36.9685 46.2594L36.9664 46.2621L36.9644 46.2631L36.9613 46.2659L36.9603 46.2677L36.9583 46.2705L36.9562 46.2715L36.9532 46.2742L36.9522 46.2761L36.9196 46.3087L36.9145 46.3133L36.9115 46.317L36.8982 46.3282L36.8972 46.3301L36.8932 46.3338L36.8921 46.3357L36.8901 46.3366L36.8881 46.3394L36.886 46.3403L36.885 46.3422L36.8636 46.3617H36.8626L36.8575 46.3664L36.8565 46.3682L36.8545 46.3701L36.8524 46.371L36.8504 46.3738L36.8484 46.3747L36.8474 46.3766L36.8453 46.3785L36.8433 46.3794L36.8392 46.3831L36.8382 46.385L36.8362 46.3859L36.8178 46.4026L36.8158 46.4036L36.8056 46.4129ZM34.8293 44.7809C33.8523 44.4068 32.0174 44.2607 30.9234 43.8886C31.3488 44.4105 31.4211 45.7718 31.3732 47H35.2384L35.2394 46.9991H35.2679L35.27 46.9981H35.2954L35.2964 46.9972H35.3066L35.3147 46.9963L35.3636 46.9935H35.3738L35.3758 46.9926H35.3829L35.3839 46.9916H35.3972L35.3992 46.9907H35.4063L35.4084 46.9898H35.4206L35.4216 46.9888H35.4277L35.4287 46.9879H35.4379L35.443 46.987H35.4491L35.4582 46.986L35.4592 46.9851H35.4694L35.4704 46.9842L35.4765 46.9832H35.4857L35.4867 46.9823H35.4908L35.4928 46.9814H35.4979L35.502 46.9805H35.503L35.5111 46.9795H35.5122L35.5162 46.9786H35.5213L35.5254 46.9777H35.5264L35.5295 46.9767H35.5345L35.5366 46.9758H35.5396L35.5417 46.9749H35.5457L35.6027 46.9665L35.6037 46.9656H35.6058L35.6587 46.9563L35.6628 46.9553L35.7177 46.9442H35.7198L35.7299 46.9423L35.7757 46.9311H35.7768L35.7818 46.9302L35.8164 46.9218L35.8337 46.9172L35.8399 46.9153L35.8806 46.9042L35.8897 46.9014L35.9009 46.8986L35.9528 46.8828L35.9905 46.8707L36.0006 46.8679L36.0068 46.8651L36.0515 46.8493H36.0525L36.0546 46.8483L36.0688 46.8437L36.1014 46.8307L36.1085 46.8288L36.1177 46.8241L36.1543 46.8102L36.2296 46.7767L36.2459 46.7702L36.25 46.7683L36.2642 46.7609L36.2764 46.7562L36.2775 46.7553L36.2927 46.7478C35.8052 46.2659 35.1906 45.3457 34.8293 44.7809ZM30.7514 40.5371C30.4756 41.0553 30.1714 42.0928 30.4909 42.9739C31.1778 43.1861 31.7722 43.3005 32.4561 43.5257C31.6104 42.7823 30.9428 41.7439 30.7514 40.5371ZM30.324 39.5861C29.9108 39.3331 29.6859 39.2642 29.3409 38.9144C29.0987 39.8653 28.4657 41.1819 27.7004 42.2407C28.138 42.3756 28.5766 42.5096 29.0183 42.6436L29.7337 42.8511C29.4885 41.7718 29.9454 40.4831 30.324 39.5861ZM28.6041 37.8053C26.5372 38.8948 24.3105 39.9667 21.9922 40.9902C21.9078 41.0823 21.7826 41.1363 21.6523 41.14C19.8073 41.9476 17.9072 42.7236 15.9848 43.454C18.0823 43.4112 19.5956 43.5936 20.7903 43.7378C22.3586 43.9267 23.3956 44.0523 24.6484 43.5806C27.4918 42.5087 28.3629 39.3126 28.6174 37.8378L28.6041 37.8053ZM27.3117 42.8241C27.85 42.9916 28.3894 43.1554 28.9267 43.3191C29.2595 43.4205 29.6086 43.5303 29.9678 43.6448C30.0981 43.87 30.2182 44.0849 30.2874 44.297C30.5723 45.1577 30.6507 46.063 30.5805 47H27.0349C26.9514 46.9712 26.7733 46.9739 26.526 47H22.2619C23.2796 46.7078 24.4917 46.3031 25.4707 45.6136C26.294 45.0349 26.6624 44.1603 27.0176 43.1163C27.1193 43.0214 27.217 42.9237 27.3117 42.8241ZM21.7287 37.1102C21.003 37.3959 19.8968 38.3375 19.4592 39.1004C18.1973 41.2972 17.7526 41.8927 16.3461 42.505C16.9343 41.9867 17.7953 40.3742 18.2003 39.7192C18.7733 38.6706 19.8561 37.2749 21.0407 37.0832C21.0611 37.0758 21.7093 37.1167 21.7287 37.1102ZM18.3459 41.7048C19.388 40.5985 20.7008 37.8862 22.3138 37.2786C22.9539 37.0376 23.0791 37.2693 23.2501 37.6741C22.2975 38.4994 21.6096 39.5861 21.2361 40.4859C20.2866 40.9009 19.3208 41.3075 18.3459 41.7048ZM19.2048 37.3279C18.5993 37.8341 18.2288 38.5115 17.8197 39.2586C17.3262 40.1621 16.7339 41.2461 15.531 42.4091V39.1758C15.7945 38.545 16.0836 37.9886 16.4611 37.6061C16.5273 37.5708 16.5832 37.5205 16.6229 37.4591C16.7705 37.3372 16.9303 37.2414 17.1063 37.1744C17.7465 36.9334 18.5484 37.0023 19.2048 37.3279ZM15.531 44.3138V44.8265L15.532 44.8739L15.533 44.8953L15.535 44.9474C15.5442 45.0879 15.5676 45.2256 15.6042 45.3587L15.6063 45.368L15.6195 45.4126L15.6358 45.4601V45.462C15.646 45.4908 15.6551 45.5178 15.6663 45.5457L15.6714 45.5597L15.6918 45.608V45.6099L15.7111 45.6518L15.7131 45.6564C15.7325 45.7002 15.7548 45.7439 15.7772 45.7858L15.7813 45.7941L15.7925 45.8137L15.8078 45.8397L15.8098 45.8444L15.8281 45.8751L15.8342 45.8844L15.8475 45.9058L15.8617 45.9281L15.8668 45.9365L15.8902 45.97L15.8912 45.9728L15.9187 46.0119L15.9238 46.0184L15.9502 46.0537L15.9533 46.0584L15.9828 46.0965L15.9848 46.0984L16.0144 46.1356L16.0205 46.1421L16.0479 46.1747L16.051 46.1775L16.0764 46.2073L16.0856 46.2166L16.0907 46.2231C16.1131 46.2473 16.1355 46.2705 16.1589 46.2929L16.1894 46.3245L16.2301 46.3617L16.2352 46.3654L16.2739 46.4008L16.3125 46.4334L16.3146 46.4352L16.3553 46.4678V46.4687L16.398 46.5013L16.399 46.5022L16.4408 46.5329L16.4428 46.5348L16.4886 46.5664L16.5293 46.5943L16.5354 46.598L16.5751 46.6232C16.6016 46.639 16.628 46.6548 16.6545 46.6706L16.6677 46.6781L16.7155 46.7041L16.7278 46.7106L16.7634 46.7292L16.7674 46.7311L16.802 46.7478L16.8183 46.7553L16.8519 46.772L16.8672 46.7786L16.9048 46.7953L16.9181 46.8009L16.9486 46.813L16.974 46.8241L17.0015 46.8344L17.0147 46.839L17.0392 46.8483L17.0463 46.8511C17.0758 46.8614 17.1053 46.8716 17.1358 46.8809L17.1623 46.8893L17.1725 46.893L17.204 46.9014L17.2264 46.9079L17.26 46.9172L17.2814 46.9228L17.317 46.9311L17.3241 46.933L17.3597 46.9414L17.3801 46.9451L17.4127 46.9516L17.432 46.9553L17.4473 46.9581L17.49 46.9656L17.491 46.9665L17.5266 46.9712L17.5602 46.9767L17.607 46.9823L17.6172 46.9832L17.6752 46.9898L17.7271 46.9935L17.7332 46.9944L17.7872 46.9972H17.7912L17.8482 46.9991L17.9093 47H19.5355C22.0299 46.4994 24.8306 45.4099 25.6254 44.0895C25.4269 44.19 25.2193 44.2831 25.0015 44.365C23.5198 44.9232 22.324 44.779 20.6692 44.579C19.3524 44.4208 17.7872 44.231 15.531 44.3138Z" fill="#006540"/>
</svg>
