<svg xmlns="http://www.w3.org/2000/svg" viewBox="0 0 121.32 43.14"><defs><style>.cls-1{fill:#fff;fill-rule:evenodd;}</style></defs><g id="Слой_2" data-name="Слой 2"><g id="Слой_1-2" data-name="Слой 1"><path class="cls-1" d="M84.17,31.8a5.67,5.67,0,0,0,1.1-1.51,12.21,12.21,0,0,0,1.59-3.52c.27-1.35.21-1.88,0-2.32s-1.64-.3-2.23.49c-.74,1-.47.89-.72,1.63a6.59,6.59,0,0,0-.3.73,5,5,0,0,0,0,.79A7.1,7.1,0,0,0,83.81,31,5.14,5.14,0,0,0,84.17,31.8Zm7.11-6.87c-.59.95-1.23,2-1.65,2.74-.58,1-1.49,2.68-2.18,4,.16.26.44.51,1.21.65a3.63,3.63,0,0,0,2.8-.4c.91-.56,1.22-1.05,1.25-2.56a9,9,0,0,0-1.15-3.87A4.18,4.18,0,0,0,91.28,24.93ZM83,28.34s-.07,0-.08,0a8.37,8.37,0,0,0-.95,2.15c-.44,1.44.43,2.34,1.4,1.87a3.72,3.72,0,0,0,.53-.33l-.08-.09a4.59,4.59,0,0,1-.4-.73,6.39,6.39,0,0,1-.32-1.27A8.2,8.2,0,0,1,83,28.34Zm1.2,4.15a1.59,1.59,0,0,0,.5.43,1.7,1.7,0,0,0,.51.17c.31,0,.32,0,.46,0-.14.28-.27.55-.38.79A29.63,29.63,0,0,0,83,39.56c-.34,1.71-.2,2.22.12,2.77s.84,1.22,2.23.48a5.72,5.72,0,0,0,2-1.47.76.76,0,0,0,.25-.73c0-.22-.14-.2-.5.2a4,4,0,0,1-1.56,1.12c-.55.13-1.07.29-1.09-.61a8.31,8.31,0,0,1,.48-3.67A42.58,42.58,0,0,1,86.73,33l.2-.37a.75.75,0,0,0,.18.08,5.22,5.22,0,0,0,3.53.17,6.1,6.1,0,0,0,3-2.68A3.61,3.61,0,0,0,94,27.37,11,11,0,0,0,92.49,24l-.32-.5c.17-.28.32-.49.41-.62.44-.6,1-1.3.85-1.45s-.51,0-.68.23l-.36.46-.62.81c-.37-.52-.69-.9-.84-1.1a.68.68,0,0,0-1-.13c-.43.32-.74.62-.6.83s0,0,.29.21a8.55,8.55,0,0,1,1.27,1.48c-.58.82-1.25,1.8-1.87,2.8-.51.82-1,1.71-1.53,2.59a1.08,1.08,0,0,0-.69.36,1.5,1.5,0,0,0-.48,1.27c0,.16,0,.31,0,.46-.19.35-.36.69-.52,1a1.61,1.61,0,0,1-.7-.08,2.29,2.29,0,0,1-.64-.42l.14-.13a15.85,15.85,0,0,0,3.3-4.55c.81-1.92,1.23-3.47-.28-4.08a3.66,3.66,0,0,0-3,.43,6.06,6.06,0,0,0-2,2,21.86,21.86,0,0,0-2,3.49,4.87,4.87,0,0,0-.54,1.94c0,.36-.06.33-.34.54a.86.86,0,0,1-.85.22.75.75,0,0,1-.63-.36,2.45,2.45,0,0,1-.23-1.12,4.83,4.83,0,0,1,.4-2.05,7.47,7.47,0,0,0,.76-2.29c0-.66-.09-.85-.72-.88s-.7.5-1.08.9a22.83,22.83,0,0,1-1.73,1.9c-.61.51-.94.93-1.18,1.14s-.5.44-.32-.05c.29-.79.91-1.91,1.09-2.64A5.6,5.6,0,0,0,75.5,25c0-.51-.26-1-1-.45a21.73,21.73,0,0,0-3.37,2.81c-1.33,1.37-1.32,1.39-1.58,1.68s-.33.33-.12-.25,1-2.24,1.34-3.07a4.22,4.22,0,0,0,.6-1.58c0-.22-.09-.31-.25-.33a1.5,1.5,0,0,0-.64.07,3.06,3.06,0,0,0-1.35,1.53c-.41.8-1,2.07-1.36,3a15.09,15.09,0,0,1-1,2.15A3.94,3.94,0,0,1,66,31.77c-.37.32-.67.69-1.33.23a5.7,5.7,0,0,1-1.58-2.41c-.29-.82-.46-.86-.13-1.07a26.7,26.7,0,0,1,2.69-2c1.13-.66,1.8-1.12,2.32-1.4s1.34-1,.66-1.23-1.38.38-2.36,1-1.91,1.71-2.71,2.35-1,1.12-.94.58a14.2,14.2,0,0,1,1.29-3c.51-1,1.88-3.55,2.94-5.25s2.25-3.39,2.74-4.17,1.13-1.37.12-1.35-1.52,0-1.7.32-2.22,4-3,5.59S63.05,24,62,26.21s-1.37,3-2,4.24-.6,1.88-1.25,1.89c-.27,0-.5-.14-.6-.57A6.25,6.25,0,0,1,58,30a18.44,18.44,0,0,1,.66-3.43,3.17,3.17,0,0,1,.87-1.37c.43-.45,1.12-1.26.32-1.25s-1.68,0-2.19,1.1.16.47-.74,1.6a22.38,22.38,0,0,1-3,3.59c-1.52,1.36-1.74,1.62-2.2,1.32s.65-2.84,1-3.44.77-1.29,1.38-2.28,1.3-1.88.6-1.83a2.56,2.56,0,0,0-1.91.83A10,10,0,0,0,51.7,27.1c-.46,1.19-.82,1.94-1.06,2.53s-.78,2-.49,2.66,1.14,1,2.55,0a20.16,20.16,0,0,0,3.44-3.53,7.73,7.73,0,0,1,.8-1,1.33,1.33,0,0,1,0,.39,15.18,15.18,0,0,0-.42,3.57c.21.91.23,1.81,2,1.84s2-1.7,2.32-2.4a6.07,6.07,0,0,1,.7-1.21c.25-.36.55-.67.55-.35a5.1,5.1,0,0,0,1.44,2.9,3.29,3.29,0,0,0,2.54,1A2.45,2.45,0,0,0,68.25,32a19.67,19.67,0,0,1,2.88-3.85c1.06-1.16,1.29-1.44,1.57-1.72s1.22-.88,1,.2a19.08,19.08,0,0,1-1.08,3.31c-.57,1.36-.69,1.6-.88,2s-.56,1,.09,1a1.85,1.85,0,0,0,1.61-1c.39-.63.42-1.06.8-1.42s1.56-1.54,2.13-2.11,1.18-1.52,1-.92A9.8,9.8,0,0,0,76.5,31c.1,1.32.8,2.15,1.81,2.14a2.79,2.79,0,0,0,1.62-.52c.31-.14.2-.07.3.17s.42.63,1.54.61A3.94,3.94,0,0,0,84.16,32.49Z"/><path class="cls-1" d="M45.46,20.84c.6,0,1.8-.12,1.69-.22a5.85,5.85,0,0,0-3.29-1c-.54,0-.74.08-.72.41S43.53,20.69,45.46,20.84Zm2.45-.41a14.93,14.93,0,0,0,3-1.78c2-1.4,3.53-4.22,4.49-5.9a10.34,10.34,0,0,0,1-5.84A4.35,4.35,0,0,0,55.1,4.3l-.71.51a37.11,37.11,0,0,0-5.66,5.1c-1.68,1.89-2.89,3.46-4.23,5.27S38.29,23.59,37,25.25a43,43,0,0,1-5.25,5.92A34.6,34.6,0,0,1,25.26,36a29.15,29.15,0,0,1-9.21,3.74c-3.62.67-6.35.65-9.44-.56S1.22,36.33.51,33.75a9.33,9.33,0,0,1,.58-7.44A12.2,12.2,0,0,1,8.76,19.5c3.79-1.1,5.91-1.11,8.57-.18s4.52,4.25,3.89,7.51a9.29,9.29,0,0,1-4.54,6.74c-2.52,1.6-5.83,1-7.21.62a6.19,6.19,0,0,1-1.93-.78c-.2-.11-.17-.3-.1-.48s.2-.24.45-.21,0,0,1,0,5,0,7.24-1.24c2.07-1.12,2.81-1.56,3.64-3.18a6.27,6.27,0,0,0,.7-4,4.62,4.62,0,0,0-2.12-3.62,7.39,7.39,0,0,0-5.49-1.23A15.74,15.74,0,0,0,5,22.86c-1.74,1.68-2.85,2.91-3.42,4.93a9.22,9.22,0,0,0-.38,4.66,6.74,6.74,0,0,0,2.22,4,9.66,9.66,0,0,0,4.19,2.1,13.91,13.91,0,0,0,6,.58,16.15,16.15,0,0,0,6.44-2.09,36.74,36.74,0,0,0,7.8-5.89c2.34-2.51,5.87-6.85,7.1-8.38s3.65-4.44,5.08-6.15a66.68,66.68,0,0,1,6.47-6.85,60.15,60.15,0,0,1,7.93-6.06,9.51,9.51,0,0,0-2-1.18,18.7,18.7,0,0,0-8.13-1.26c-3.12.07-5.88,1.29-9,2.58A26.94,26.94,0,0,0,28.76,8a12.1,12.1,0,0,0-3.34,4,7.52,7.52,0,0,0-1.05,4.61c0,1.72,2.29,2.81,4.79,2.35s1.78-.39,5.07-2.38a21.85,21.85,0,0,0,6.5-6.14A6.8,6.8,0,0,0,42.12,5.2c-.07-.54-.1-.39-.13-.65s.14-.31.56-.24.48.92.47,2.83a8.69,8.69,0,0,1-1.54,4.07c-.52.85-1.13,1.71-1.74,2.53a16.49,16.49,0,0,1-7.25,5,9.26,9.26,0,0,1-6.57.57,3.11,3.11,0,0,1-2.3-3.2,9,9,0,0,1,1.73-5.45,19.22,19.22,0,0,1,6.07-5.41,33.58,33.58,0,0,1,7.71-3.62A19.23,19.23,0,0,1,48.06.8a13.28,13.28,0,0,1,7,2.57A20.83,20.83,0,0,1,59.92,1a11,11,0,0,1,3.54-1c.58.05.48.16.48.47s-.29.6-.78.68A16.94,16.94,0,0,0,59.51,2a17.59,17.59,0,0,0-3.75,1.89l.48.37a7.42,7.42,0,0,1,3,5.69,8.39,8.39,0,0,1-2.63,7,14.79,14.79,0,0,1-6.86,3.93c-.39.12-.77.22-1.13.3a5.37,5.37,0,0,1,.56.72c.87,1.24,1.53,2.09,1.41,5.06a14.56,14.56,0,0,1-2.3,6.71,21,21,0,0,1-5.5,5.62,9,9,0,0,1-5.58,1.18c-2.82-.28-3.46-1.89-3.87-3.51s.1-3.43,1.39-5.79a14.83,14.83,0,0,1,4.81-5A6.7,6.7,0,0,1,43.16,25c1.55-.12,1.85.21,2,.53s-.66.07-1.28.07a3.52,3.52,0,0,0-1.75.46,12.46,12.46,0,0,0-4,2.89,18.39,18.39,0,0,0-3.55,5.35,4.86,4.86,0,0,0-.23,3.46,2.5,2.5,0,0,0,2.45,1.71c1.4.13,2.52-.62,4.17-2.11s2.43-2.83,4.36-5.6a18.23,18.23,0,0,0,3-7.8,3.28,3.28,0,0,0-.52-2.62h0a16.27,16.27,0,0,1-3.6.2c-1.4-.07-1.75-.93-1.77-1.55s.64-1.21,2.59-.88a6.24,6.24,0,0,1,2.91,1.36Z"/><path class="cls-1" d="M110.25,21.2a7.4,7.4,0,0,0-1.14,3c0,1,.34,1.73,1,1.94a3.51,3.51,0,0,0,1.43.33c.54,0,.7.1.8-.16a26.31,26.31,0,0,0,1.59-3.42c.35-1.21.58-2.22,0-2.8a2.58,2.58,0,0,0-2.92.22A5.2,5.2,0,0,0,110.25,21.2ZM96.09,25.56c-.3.72-1.3,3.08-1.63,4s-.79,2.4-.36,2.89,1.19.68,2.32-.19a24.4,24.4,0,0,0,3.13-3.15c.74-.9,1.35-1.79,1.21-1.2a13.14,13.14,0,0,0-.43,2.7c0,1,0,2,.61,2.4a1.65,1.65,0,0,0,1.63.12c.62-.19.37-.51.87-.29s2.06,1.3,3.8.59,3.59-3.33,4.08-4.1.39-1.09.84-1.12.63-.27.5.37-.44,3.09.64,4.1a3.44,3.44,0,0,0,3.94.76A8.12,8.12,0,0,0,120.48,31c.92-1,.82-1.31.84-1.7s0-.31-.52.15a24.57,24.57,0,0,1-2.9,2.33c-.7.4-2.25.72-2.65-.23a7.08,7.08,0,0,1-.27-4.37,7,7,0,0,1,.47-1.66c.15-.34.48-.56,0-.49a2,2,0,0,0-1.19.61c-.38.33-.62.41-.15-.29A8.9,8.9,0,0,0,115.4,23a6.26,6.26,0,0,0,.75-3.7c-.21-1.64-3.37-1.06-4.46-.35a10.79,10.79,0,0,0-3.42,3.82c-.86,1.68-1.28,3.27-.68,4.15a2.73,2.73,0,0,0,.73.78,3,3,0,0,0,1.59.56c1,0,1.2-.07.91.24A18.64,18.64,0,0,1,108.63,31c-1.33,1.21-2.4.92-2.84.33-.82-1.1-.39-1.92-1.3-1.94a2,2,0,0,0-1.82,1.7c-.07.84.24,1.18-.14,1.11s-.72-.2-.69-1.38a22,22,0,0,1,.52-3.83,3.19,3.19,0,0,1,1.22-2c.43-.38,1-1.2,0-1.21a2.08,2.08,0,0,0-2,.92c-.47.64,0,.68-.52,1.32a23.78,23.78,0,0,1-2.71,3.47c-1.6,1.62-2.25,2.15-2.67,2s-.14-1.24.13-1.93a17.69,17.69,0,0,1,1.84-3.48c.88-1.25,1.56-2.28.79-2.24a2.66,2.66,0,0,0-1.47.36A3.36,3.36,0,0,0,96.09,25.56Z"/></g></g></svg>