<?xml version="1.0" encoding="UTF-8"?> <svg xmlns="http://www.w3.org/2000/svg" width="235" height="84" viewBox="0 0 235 84" fill="none"> <path d="M69.7913 65.1485C69.7913 75.5007 67.4956 80.0031 61.7331 80.0031C55.9724 80.0031 53.7889 75.5007 53.7889 65.1485C53.7889 54.8454 56.1387 50.2884 61.7331 50.2884C67.3818 50.2884 69.7913 54.8454 69.7913 65.1485ZM9.51624 12.4454C9.51624 7.27749 11.3039 4.86079 14.0369 4.86079H19.1813V19.6954H14.0966C11.2461 19.6954 9.51624 17.3933 9.51624 12.4454ZM26.9466 1.15125H13.7604C7.05614 1.15125 1.74912 4.8608 1.74912 12.6145C1.74912 17.9534 4.76776 21.1556 8.50761 22.6194L0.968262 37.6795H8.90166L15.0474 23.5759H19.1813V37.6795H26.9466V1.15125ZM32.3476 37.6795H40.0586V22.9558L42.4609 21.2702L52.182 37.6795H61.9555L48.3843 15.4276L59.3869 1.15125H54.0275L43.3556 15.6513L40.0586 18.0679V1.15125H32.3476V37.6795ZM82.9485 19.4718C82.9485 29.8131 80.6601 34.3064 74.9031 34.3064C69.1514 34.3064 66.9715 29.8131 66.9715 19.4718C66.9715 9.18499 69.3177 4.63349 74.9031 4.63349C80.5463 4.63349 82.9485 9.18499 82.9485 19.4718ZM91.4965 19.4718C91.4965 8.00848 85.6291 0.589355 74.9031 0.589355C64.233 0.589355 58.4813 8.00848 58.4813 19.4718C58.4813 30.9369 64.233 38.2996 74.9031 38.2996C85.6291 38.2996 91.4965 30.9369 91.4965 19.4718ZM102.32 17.3933V4.80262H105.447C108.52 4.80262 110.98 6.49009 110.98 11.0998C110.98 16.044 108.52 17.3933 106.902 17.3933H102.32ZM107.293 20.7628C110.143 20.7628 112.264 22.2812 112.264 26.8873C112.264 31.8352 109.695 34.0282 105.783 34.0282H102.32V20.7628H107.293ZM94.6091 37.6795H105.95C115.45 37.6795 120.085 33.3535 120.085 27.1709C120.085 22.7867 117.124 19.9191 113.102 18.628C115.841 17.2242 118.52 14.753 118.52 10.6488C118.52 5.81548 114.666 1.15125 105.673 1.15125H94.6091V37.6795ZM129.287 1.15125C129.287 24.1924 126.777 33.1262 121.636 33.1262C120.797 33.1262 119.958 32.8462 119.958 32.8462L119.678 37.7905C119.678 37.7905 120.575 38.2414 122.697 38.2414C129.51 38.2414 133.647 27.731 133.701 5.1954H140.677V37.6795H148.384V1.15125H129.287ZM175.066 33.6317H160.941V21.1556H172.611V17.2242H160.941V5.1954H174.285V1.15125H153.232V37.6795H175.066V33.6317ZM186.282 17.3933V4.80262H189.41C192.483 4.80262 194.94 6.49009 194.94 11.0998C194.94 16.044 192.483 17.3933 190.864 17.3933H186.282ZM191.254 20.7628C194.105 20.7628 196.227 22.2812 196.227 26.8873C196.227 31.8352 193.653 34.0282 189.745 34.0282H186.282V20.7628H191.254ZM178.572 37.6795H189.913C199.41 37.6795 204.046 33.3535 204.046 27.1709C204.046 22.7867 201.085 19.9191 197.065 18.628C199.802 17.2242 202.483 14.753 202.483 10.6488C202.483 5.81548 198.625 1.15125 189.635 1.15125H178.572V37.6795ZM220.009 18.6844C224.201 18.6844 226.267 20.4264 226.267 26.1617C226.267 31.8352 224.419 34.0282 220.067 34.0282H217.384V18.6844H220.009ZM209.673 37.6795H220.235C229.676 37.6795 234.254 33.239 234.254 25.9344C234.254 18.5735 228.944 15.1439 220.009 15.1439H217.384V1.15125H204.01V5.1954H209.673V37.6795ZM78.3483 65.1485C78.3483 53.6652 72.4737 46.2334 61.7331 46.2334C51.0486 46.2334 45.2861 53.6652 45.2861 65.1485C45.2861 76.6263 51.0486 84 61.7331 84C72.4737 84 78.3483 76.6263 78.3483 65.1485ZM105.142 46.7989H77.8385V50.8503H87.6319V83.3799H95.4062V50.8503H105.142V46.7989ZM126.59 79.3285H114.646V66.8342H126.33V62.8937H114.646V50.8503H128.011V46.7989H106.926V83.3799H126.59V79.3285ZM138.858 46.7989C138.858 69.8745 136.342 78.823 131.192 78.823C130.356 78.823 129.517 78.5411 129.517 78.5411L129.237 83.4945C129.237 83.4945 130.133 83.9454 132.257 83.9454C139.082 83.9454 143.224 73.4186 143.278 50.8503H150.266V83.3799H157.984V46.7989H138.858ZM173.276 64.3593C177.471 64.3593 179.541 66.1013 179.541 71.8421C179.541 77.5283 177.694 79.7213 173.334 79.7213H170.648V64.3593H173.276ZM162.926 83.3799H173.498C182.956 83.3799 187.543 78.9339 187.543 71.6184C187.543 64.2466 182.224 60.8116 173.276 60.8116H170.648V46.7989H162.926V83.3799Z" fill="#006B3B"></path> </svg> 